<svg xmlns="http://www.w3.org/2000/svg"  viewBox="0 0 100 100" width="100px" height="100px" baseProfile="basic"><path fill="#c7ede6" d="M87.215,56.71C88.35,54.555,89,52.105,89,49.5c0-6.621-4.159-12.257-10.001-14.478 C78.999,35.015,79,35.008,79,35c0-11.598-9.402-21-21-21c-9.784,0-17.981,6.701-20.313,15.757C36.211,29.272,34.638,29,33,29 c-7.692,0-14.023,5.793-14.89,13.252C12.906,43.353,9,47.969,9,53.5C9,59.851,14.149,65,20.5,65 c0.177,0,0.352-0.012,0.526-0.022C21.022,65.153,21,65.324,21,65.5C21,76.822,30.178,86,41.5,86 c6.437,0,12.175-2.972,15.934-7.614C59.612,80.611,62.64,82,66,82c4.65,0,8.674-2.65,10.666-6.518 C77.718,75.817,78.837,76,80,76c6.075,0,11-4.925,11-11C91,61.689,89.53,58.727,87.215,56.71z"/><path fill="#fff" d="M14.405,51H4.5C4.224,51,4,50.776,4,50.5S4.224,50,4.5,50h9.905c0.276,0,0.5,0.224,0.5,0.5 S14.682,51,14.405,51z M17.5,51h-1c-0.276,0-0.5-0.224-0.5-0.5s0.224-0.5,0.5-0.5h1c0.276,0,0.5,0.224,0.5,0.5 S17.777,51,17.5,51z M22.491,53H13.5c-0.276,0-0.5-0.224-0.5-0.5s0.224-0.5,0.5-0.5h8.991c0.276,0,0.5,0.224,0.5,0.5 S22.767,53,22.491,53z M11.5,53h-1c-0.276,0-0.5-0.224-0.5-0.5s0.224-0.5,0.5-0.5h1c0.276,0,0.5,0.224,0.5,0.5 S11.777,53,11.5,53z M8.5,53h-2C6.224,53,6,52.776,6,52.5S6.224,52,6.5,52h2C8.776,52,9,52.224,9,52.5S8.777,53,8.5,53z M14.5,55h-2c-0.276,0-0.5-0.224-0.5-0.5s0.224-0.5,0.5-0.5h2c0.276,0,0.5,0.224,0.5,0.5S14.776,55,14.5,55z M17.5,46 c-0.177,0-0.823,0-1,0c-0.276,0-0.5,0.224-0.5,0.5s0.224,0.5,0.5,0.5c0.177,0,0.823,0,1,0c0.276,0,0.5-0.224,0.5-0.5 S17.776,46,17.5,46z M17.5,48c-0.177,0-4.823,0-5,0c-0.276,0-0.5,0.224-0.5,0.5s0.224,0.5,0.5,0.5c0.177,0,4.823,0,5,0 c0.276,0,0.5-0.224,0.5-0.5S17.776,48,17.5,48z M22.5,50c-0.177,0-2.823,0-3,0c-0.276,0-0.5,0.224-0.5,0.5s0.224,0.5,0.5,0.5 c0.177,0,2.823,0,3,0c0.276,0,0.5-0.224,0.5-0.5S22.776,50,22.5,50z"/><path fill="#fff" d="M85.5,65h-10c-0.276,0-0.5-0.224-0.5-0.5s0.224-0.5,0.5-0.5h10c0.276,0,0.5,0.224,0.5,0.5 S85.776,65,85.5,65z M89.5,65h-2c-0.276,0-0.5-0.224-0.5-0.5s0.224-0.5,0.5-0.5h2c0.276,0,0.5,0.224,0.5,0.5 S89.776,65,89.5,65z M94.5,67h-10c-0.276,0-0.5-0.224-0.5-0.5s0.224-0.5,0.5-0.5h10c0.276,0,0.5,0.224,0.5,0.5 S94.777,67,94.5,67z M82.5,67h-1c-0.276,0-0.5-0.224-0.5-0.5s0.224-0.5,0.5-0.5h1c0.276,0,0.5,0.224,0.5,0.5 S82.776,67,82.5,67z M79.375,67H77.5c-0.276,0-0.5-0.224-0.5-0.5s0.224-0.5,0.5-0.5h1.875c0.276,0,0.5,0.224,0.5,0.5 S79.651,67,79.375,67z M88.5,63h-5c-0.276,0-0.5-0.224-0.5-0.5s0.224-0.5,0.5-0.5h5c0.276,0,0.5,0.224,0.5,0.5 S88.777,63,88.5,63z M85.5,69h-2c-0.276,0-0.5-0.224-0.5-0.5s0.224-0.5,0.5-0.5h2c0.276,0,0.5,0.224,0.5,0.5 S85.776,69,85.5,69z"/><path fill="#fdfcef" d="M66,38.25c0,0-3.64,0-6.125,0s-4.5-2.015-4.5-4.5c0-2.333,1.782-4.229,4.055-4.455 c-0.022-0.181-0.055-0.358-0.055-0.545c0-2.485,2.015-4.5,4.5-4.5c1.438,0,2.703,0.686,3.527,1.736 c0.14-2.636,2.302-4.736,4.973-4.736c2.761,0,5,2.239,5,5c0,0.446-0.077,0.87-0.187,1.282 c0.642-0.777,1.601-1.282,2.687-1.282c1.781,0,3.234,1.335,3.455,3.055c0.181-0.022,0.358-0.055,0.545-0.055 c2.485,0,4.5,2.015,4.5,4.5s-2.015,4.5-4.5,4.5s-9.5,0-9.5,0H69v0.5h-3V38.25z"/><path fill="#472b29" d="M72.375,20.75c3.033,0,5.5,2.467,5.5,5.5c0,0.016,0,0.031,0,0.047 c0.602-0.355,1.29-0.547,2-0.547c1.831,0,3.411,1.261,3.858,3.005c0.047-0.003,0.094-0.005,0.142-0.005c2.757,0,5,2.243,5,5 s-2.243,5-5,5H69c-0.276,0-0.5-0.224-0.5-0.5s0.224-0.5,0.5-0.5h14.875c2.206,0,4-1.794,4-4s-1.794-4-4-4 c-0.117,0-0.23,0.017-0.343,0.032l-0.141,0.019c-0.021,0.003-0.041,0.004-0.062,0.004c-0.246,0-0.462-0.185-0.495-0.437 c-0.191-1.493-1.463-2.618-2.959-2.618c-0.885,0-1.723,0.401-2.301,1.1c-0.098,0.118-0.241,0.182-0.386,0.182 c-0.078,0-0.156-0.018-0.228-0.056c-0.209-0.107-0.314-0.346-0.254-0.573c0.115-0.435,0.169-0.801,0.169-1.153 c0-2.481-2.019-4.5-4.5-4.5c-2.381,0-4.347,1.872-4.474,4.263c-0.011,0.208-0.15,0.387-0.349,0.45 c-0.05,0.016-0.101,0.024-0.152,0.024c-0.15,0-0.296-0.069-0.392-0.192c-0.771-0.982-1.912-1.545-3.133-1.545 c-2.206,0-4,1.794-4,4c0,0.117,0.017,0.23,0.032,0.343l0.019,0.141c0.016,0.134-0.022,0.268-0.106,0.373 s-0.207,0.172-0.34,0.185c-2.056,0.205-3.605,1.907-3.605,3.958c0,2.206,1.794,4,4,4H66c0.276,0,0.5,0.224,0.5,0.5 s-0.224,0.5-0.5,0.5h-6.125c-2.757,0-5-2.243-5-5c0-2.397,1.689-4.413,4.003-4.877c-0.002-0.041-0.003-0.082-0.003-0.123 c0-2.757,2.243-5,5-5c1.176,0,2.293,0.416,3.183,1.164C67.656,22.51,69.82,20.75,72.375,20.75L72.375,20.75z"/><path fill="#472b29" d="M73.875,27.75c-0.256,0-0.517,0.04-0.819,0.126c-0.133,0.038-0.21,0.176-0.172,0.309 c0.032,0.109,0.13,0.182,0.239,0.182c0.023,0,0.047-0.003,0.07-0.01c0.257-0.073,0.474-0.107,0.682-0.107 c1.288,0,2.377,1.012,2.481,2.305c0.007,0.095,0.067,0.177,0.155,0.212c0.03,0.013,0.061,0.019,0.093,0.019 c0.059,0,0.118-0.022,0.165-0.063c0.346-0.305,0.784-0.473,1.231-0.473c1.034,0,1.875,0.841,1.875,1.875 c0,0.08,0.038,0.162,0.102,0.208c0.046,0.034,0.101,0.054,0.156,0.054c0.022,0,0.045-0.003,0.067-0.01 c0.268-0.085,0.509-0.127,0.738-0.127c1.268,0,2.33,0.997,2.419,2.268c0.009,0.131,0.119,0.232,0.249,0.232 c0.006,0,0.012,0,0.018,0c0.137-0.01,0.241-0.13,0.231-0.268c-0.107-1.532-1.389-2.732-2.918-2.732 c-0.188,0-0.381,0.022-0.584,0.068C80.198,30.647,79.202,29.75,78,29.75c-0.426,0-0.845,0.119-1.212,0.341 C76.484,28.749,75.278,27.75,73.875,27.75L73.875,27.75z M59.992,29.25c-0.139,0-0.275,0.016-0.409,0.034 c-0.137,0.018-0.233,0.144-0.214,0.281c0.017,0.125,0.125,0.217,0.246,0.217c0.012,0,0.023-0.001,0.035-0.003 c0.112-0.015,0.225-0.029,0.342-0.029c1.104,0,2.088,0.748,2.393,1.818c0.031,0.11,0.131,0.182,0.24,0.182 c0.022,0,0.045-0.003,0.069-0.009c0.133-0.038,0.21-0.176,0.172-0.309C62.5,30.147,61.318,29.25,59.992,29.25L59.992,29.25z"/><path fill="#f16869" d="M28.984,47.372c0,0,10.387-7.953,12.659-16.23c1.948-3.571,4.544-2.11,4.544-2.11 s2.921,1.298,2.272,5.356s-7.466,23.533-3.408,26.13s11.584-18.258,15.905-24.02c2.434-3.246,5.68-1.623,6.654,1.461 s0.811,14.282,0.811,14.282s0.487,5.356,4.22,2.272c3.733-3.084,3.733-3.733,5.031-1.461s-2.272,6.492-4.382,7.628 c-2.11,1.136-6.654,2.11-10.225-0.974c-3.571-3.084-2.272-9.575-2.272-9.575s-5.843,12.335-11.361,15.905 c-5.518,3.571-13.512,4.086-14.12-3.408c-0.487-6.005,0.811-13.471,0.811-13.471s-1.298,3.571-5.193,2.272 C29.136,50.831,28.984,47.372,28.984,47.372z"/><path fill="#472b29" d="M42.457,69.798c-0.984,0-1.958-0.151-2.88-0.467c-2.891-0.988-4.699-3.411-4.961-6.646 c-0.338-4.176,0.332-9.27,0.8-12.124c-1.329,1.037-3.322,1.982-5.464,0.837c-2.08-1.112-1.679-4.005-1.661-4.128 c0.026-0.18,0.122-0.342,0.266-0.452c0.089-0.069,8.977-6.975,12.433-15.928c0.811-1.5,1.785-2.386,2.933-2.716 c1.418-0.405,2.56,0.221,2.607,0.248c1.122,0.495,3.201,2.447,2.621,6.076c-0.16,1.001-0.66,2.826-1.292,5.136 c-1.652,6.035-5.091,18.592-2.43,20.294c0.184,0.117,0.369,0.143,0.6,0.077c2.319-0.644,6.01-8.097,8.976-14.085 c1.989-4.016,3.867-7.809,5.392-9.842c1.165-1.553,2.648-2.26,4.162-2.008c1.668,0.285,3.093,1.694,3.72,3.678 c0.508,1.609,0.652,4.736,0.805,8.046c0.152,3.303,0.31,6.719,0.828,8.704c0.038,0.146,0.161,0.495,0.469,0.579 c0.249,0.068,1.246,0.11,3.552-2.195c0.868-0.87,1.836-1.304,2.708-1.213c0.657,0.064,1.231,0.418,1.616,0.994 c0.457,0.687,0.563,1.537,0.316,2.529c-0.614,2.462-3.296,5.214-4.949,6.104c-2.482,1.338-7.999,2.814-11.108-1.158 c-1.787-2.283-2.417-5.133-2.628-7.149c-1.747,2.933-5.256,8.394-9.936,13.52C48.028,68.613,45.207,69.798,42.457,69.798z M36.5,47.801c0.097,0,0.195,0.02,0.288,0.062c0.298,0.136,0.463,0.458,0.397,0.779c-0.017,0.08-1.647,8.097-1.174,13.93 c0.218,2.693,1.646,4.623,4.019,5.436c2.986,1.02,6.641,0.018,8.886-2.442c6.673-7.309,10.922-15.311,10.965-15.391 c0.153-0.292,0.492-0.438,0.809-0.348c0.318,0.09,0.53,0.389,0.509,0.719c-0.003,0.052-0.298,5.259,2.418,8.729 c2.536,3.241,7.22,1.934,9.341,0.789c1.359-0.731,3.749-3.183,4.254-5.21c0.148-0.594,0.107-1.069-0.123-1.413 c-0.154-0.23-0.346-0.354-0.588-0.378c-0.44-0.048-1.021,0.251-1.58,0.81c-2.058,2.058-3.661,2.888-4.909,2.557 c-1.015-0.275-1.356-1.194-1.457-1.577c-0.556-2.128-0.717-5.618-0.872-8.993c-0.142-3.074-0.288-6.254-0.741-7.688 c-0.46-1.459-1.489-2.526-2.62-2.719c-0.991-0.17-1.96,0.338-2.807,1.467c-1.448,1.93-3.298,5.667-5.257,9.623 c-4.188,8.458-7.137,14.059-9.856,14.813c-0.612,0.169-1.211,0.085-1.729-0.247c-3.259-2.086-0.992-11.522,1.834-21.843 c0.597-2.18,1.112-4.062,1.26-4.987c0.558-3.485-1.841-4.595-1.865-4.605c-0.258-0.136-2.104-1.02-3.645,1.805 c-3.279,8.51-11.088,15.047-12.603,16.259c-0.029,0.572,0.011,1.922,0.958,2.428c2.64,1.411,5.301-2.049,5.328-2.084 C36.077,47.899,36.286,47.801,36.5,47.801z"/><path fill="#472b29" d="M45.021,37.992c-0.043,0-0.087-0.006-0.131-0.018c-0.267-0.072-0.424-0.347-0.352-0.613 l0.232-0.851c0.325-1.187,0.605-2.212,0.685-2.709c0.289-1.804-0.931-2.368-0.943-2.373c-0.261-0.09-0.464-0.403-0.374-0.664 c0.09-0.262,0.312-0.431,0.571-0.338c0.161,0.056,0.253,0.11,0.253,0.11c0.627,0.275,1.808,1.379,1.481,3.423 c-0.088,0.551-0.362,1.55-0.708,2.814l-0.232,0.849C45.442,37.846,45.241,37.992,45.021,37.992z"/><path fill="#472b29" d="M66.729,54.375c-0.238,0-0.45-0.171-0.492-0.414c-0.493-2.822-0.506-6.643-0.516-9.712 c-0.007-2.006-0.013-3.738-0.147-4.675c-0.085-0.598-0.372-1.195-0.766-1.601c-0.193-0.197-0.189-0.514,0.009-0.707 c0.198-0.192,0.515-0.188,0.707,0.01c0.545,0.559,0.924,1.345,1.041,2.155c0.145,1.006,0.15,2.771,0.157,4.813 c0.01,3.032,0.022,6.805,0.501,9.544c0.047,0.271-0.135,0.531-0.407,0.578C66.787,54.373,66.758,54.375,66.729,54.375z"/><path fill="#472b29" d="M63.125,37.559c-0.206,0-0.399-0.128-0.471-0.333c-0.092-0.261,0.044-0.546,0.305-0.639 c0.314-0.109,0.638-0.15,0.961-0.124c0.275,0.024,0.478,0.268,0.454,0.542c-0.024,0.275-0.263,0.478-0.542,0.454 c-0.179-0.018-0.36,0.008-0.539,0.071C63.237,37.55,63.18,37.559,63.125,37.559z"/><g><path fill="#fdfcef" d="M38,75.5c0,0,1.567,0,3.5,0S45,73.933,45,72c0-1.781-1.335-3.234-3.055-3.455 C41.973,68.366,42,68.187,42,68c0-1.933-1.567-3.5-3.5-3.5c-1.032,0-1.95,0.455-2.59,1.165 C35.526,63.857,33.923,62.5,32,62.5c-2.209,0-4,1.791-4,4c0,0.191,0.03,0.374,0.056,0.558 C27.628,66.714,27.092,66.5,26.5,66.5c-1.228,0-2.245,0.887-2.455,2.055C23.866,68.527,23.687,68.5,23.5,68.5 c-1.933,0-3.5,1.567-3.5,3.5s1.567,3.5,3.5,3.5s7.5,0,7.5,0V76h7V75.5z"/><path fill="#472b29" d="M39.75,71c-0.138,0-0.25-0.112-0.25-0.25c0-1.223,0.995-2.218,2.218-2.218 c0.034,0.009,0.737-0.001,1.244,0.136c0.133,0.036,0.212,0.173,0.176,0.306c-0.036,0.134-0.173,0.213-0.306,0.176 c-0.444-0.12-1.1-0.12-1.113-0.118c-0.948,0-1.719,0.771-1.719,1.718C40,70.888,39.888,71,39.75,71z M33,75 c-0.276,0-0.5,0.224-0.5,0.5S32.724,76,33,76s0.5-0.224,0.5-0.5S33.276,75,33,75z"/><path fill="#472b29" d="M41.5,76H38c-0.276,0-0.5-0.224-0.5-0.5S37.724,75,38,75h3.5c1.654,0,3-1.346,3-3 c0-1.496-1.125-2.768-2.618-2.959c-0.134-0.018-0.255-0.088-0.336-0.196s-0.115-0.244-0.094-0.377 C41.475,68.314,41.5,68.16,41.5,68c0-1.654-1.346-3-3-3c-0.85,0-1.638,0.355-2.219,1c-0.125,0.139-0.321,0.198-0.5,0.148 c-0.182-0.049-0.321-0.195-0.36-0.379C35.08,64.165,33.641,63,32,63c-1.93,0-3.5,1.57-3.5,3.5 c0,0.143,0.021,0.28,0.041,0.418c0.029,0.203-0.063,0.438-0.242,0.54s-0.396,0.118-0.556-0.01 C27.378,67.155,26.949,67,26.5,67c-0.966,0-1.792,0.691-1.963,1.644c-0.048,0.267-0.296,0.446-0.569,0.405 C23.814,69.025,23.66,69,23.5,69c-1.654,0-3,1.346-3,3s1.346,3,3,3H31c0.276,0,0.5,0.224,0.5,0.5S31.276,76,31,76h-7.5 c-2.206,0-4-1.794-4-4s1.794-4,4-4c0.059,0,0.116,0.002,0.174,0.006C24.088,66.82,25.211,66,26.5,66 c0.349,0,0.689,0.061,1.011,0.18C27.676,63.847,29.626,62,32,62c1.831,0,3.466,1.127,4.153,2.774 C36.833,64.276,37.655,64,38.5,64c2.206,0,4,1.794,4,4c0,0.048-0.001,0.095-0.004,0.142C44.239,68.59,45.5,70.169,45.5,72 C45.5,74.206,43.706,76,41.5,76z"/><path fill="#472b29" d="M36,75c-0.159,0-0.841,0-1,0c-0.276,0-0.5,0.224-0.5,0.5S34.724,76,35,76c0.159,0,0.841,0,1,0 c0.276,0,0.5-0.224,0.5-0.5S36.276,75,36,75z"/></g><g><path fill="#472b29" d="M43.875,42.5c-0.039,0-0.077-0.004-0.116-0.014c-0.269-0.063-0.435-0.334-0.371-0.603l0.625-2.625 c0.064-0.269,0.336-0.434,0.602-0.37c0.269,0.063,0.435,0.334,0.371,0.603l-0.625,2.625C44.307,42.346,44.102,42.5,43.875,42.5z"/></g></svg>